<mxfile host="Electron" modified="2023-05-20T13:06:36.666Z" agent="Mozilla/5.0 (Windows NT 10.0; Win64; x64) AppleWebKit/537.36 (KHTML, like Gecko) draw.io/21.2.8 Chrome/112.0.5615.165 Electron/24.2.0 Safari/537.36" etag="KT_9Wt_QU4Px0iOLWl0L" version="21.2.8" type="device">
  <diagram id="C5RBs43oDa-KdzZeNtuy" name="Page-1">
    <mxGraphModel dx="4172" dy="1685" grid="1" gridSize="10" guides="1" tooltips="1" connect="1" arrows="1" fold="1" page="1" pageScale="1" pageWidth="827" pageHeight="1169" math="0" shadow="0">
      <root>
        <mxCell id="WIyWlLk6GJQsqaUBKTNV-0" />
        <mxCell id="WIyWlLk6GJQsqaUBKTNV-1" parent="WIyWlLk6GJQsqaUBKTNV-0" />
        <mxCell id="UC4HS0ma9lEh2T5-tCLA-1" style="edgeStyle=orthogonalEdgeStyle;rounded=0;orthogonalLoop=1;jettySize=auto;html=1;entryX=0.5;entryY=0;entryDx=0;entryDy=0;" edge="1" parent="WIyWlLk6GJQsqaUBKTNV-1" source="t22loXEwvGYVSL7xWseN-0" target="UC4HS0ma9lEh2T5-tCLA-0">
          <mxGeometry relative="1" as="geometry" />
        </mxCell>
        <UserObject label="&lt;div style=&quot;&quot;&gt;&lt;font style=&quot;direction: ltr; letter-spacing: 0px; line-height: 120%; opacity: 1; font-size: 11.29px;&quot;&gt;start&lt;/font&gt;&lt;/div&gt;" Function="EN_DIO_Error_T DIO_init(uint8_t pinNumber, EN_DIO_PORT_T portNumber, EN_DIO_DIRECTION_T direction);" tags="Flowchart" id="t22loXEwvGYVSL7xWseN-0">
          <mxCell style="verticalAlign=middle;align=center;overflow=width;vsdxID=30;fillColor=#dae8fc;shape=stencil(tVLREoIgEPwaHnEQxsl3s/9gEpSJwDko7e+DsEkze2l627vdu5uFRaxyHe8FosR5sCcxqMZ3iO0Rpcp0ApQPCLEasUpaEC3Yi2lS3fOojOhsr3HDmObyMtsVcYqS29Qh5FEfklwrM5OXeUa/yjkcAwfr7TDpiyTfXvjkMR+Vw2A998qaBac5tAKHU1hq3i4oNwjRr9ofvayt/+Rk+yX/4iWA159KpXWKxJx/z0Bopfyw+g4=);strokeColor=#6c8ebf;spacingTop=-1;spacingBottom=-1;spacingLeft=-1;spacingRight=-1;points=[[0.5,1,0],[0.5,0,0],[0,0.5,0],[1,0.5,0]];labelBackgroundColor=none;rounded=1;html=1;whiteSpace=wrap;fontFamily=Calibri;" parent="WIyWlLk6GJQsqaUBKTNV-1" vertex="1">
            <mxGeometry x="-3219.5" y="-1092" width="101" height="38" as="geometry" />
          </mxCell>
        </UserObject>
        <mxCell id="t22loXEwvGYVSL7xWseN-32" value="&lt;font style=&quot;font-size: 12.5px;&quot;&gt;void app_init( void )&lt;/font&gt;" style="text;html=1;strokeColor=none;fillColor=none;align=center;verticalAlign=middle;whiteSpace=wrap;rounded=0;" parent="WIyWlLk6GJQsqaUBKTNV-1" vertex="1">
          <mxGeometry x="-3094" y="-1110" width="200" height="36" as="geometry" />
        </mxCell>
        <UserObject label="&lt;div style=&quot;&quot;&gt;&lt;font style=&quot;direction: ltr; letter-spacing: 0px; line-height: 120%; opacity: 1; font-size: 11.29px;&quot;&gt;end&lt;/font&gt;&lt;/div&gt;" Function="EN_DIO_Error_T DIO_init(uint8_t pinNumber, EN_DIO_PORT_T portNumber, EN_DIO_DIRECTION_T direction);" tags="Flowchart" id="Sz5I-C2nNWflKFqn1XSB-32">
          <mxCell style="verticalAlign=middle;align=center;overflow=width;vsdxID=30;fillColor=#dae8fc;shape=stencil(tVLREoIgEPwaHnEQxsl3s/9gEpSJwDko7e+DsEkze2l627vdu5uFRaxyHe8FosR5sCcxqMZ3iO0Rpcp0ApQPCLEasUpaEC3Yi2lS3fOojOhsr3HDmObyMtsVcYqS29Qh5FEfklwrM5OXeUa/yjkcAwfr7TDpiyTfXvjkMR+Vw2A998qaBac5tAKHU1hq3i4oNwjRr9ofvayt/+Rk+yX/4iWA159KpXWKxJx/z0Bopfyw+g4=);strokeColor=#6c8ebf;spacingTop=-1;spacingBottom=-1;spacingLeft=-1;spacingRight=-1;points=[[0.5,1,0],[0.5,0,0],[0,0.5,0],[1,0.5,0]];labelBackgroundColor=none;rounded=1;html=1;whiteSpace=wrap;fontFamily=Calibri;" parent="WIyWlLk6GJQsqaUBKTNV-1" vertex="1">
            <mxGeometry x="-2844.25" y="-1092" width="101" height="38" as="geometry" />
          </mxCell>
        </UserObject>
        <mxCell id="UC4HS0ma9lEh2T5-tCLA-7" style="edgeStyle=orthogonalEdgeStyle;rounded=0;orthogonalLoop=1;jettySize=auto;html=1;exitX=0.5;exitY=1;exitDx=0;exitDy=0;" edge="1" parent="WIyWlLk6GJQsqaUBKTNV-1" source="UC4HS0ma9lEh2T5-tCLA-0" target="UC4HS0ma9lEh2T5-tCLA-2">
          <mxGeometry relative="1" as="geometry" />
        </mxCell>
        <mxCell id="UC4HS0ma9lEh2T5-tCLA-0" value="&lt;font style=&quot;font-size: 11.29px;&quot;&gt;UltraSonic_init ()&lt;br style=&quot;border-color: var(--border-color); font-size: 11.29px;&quot;&gt;&lt;/font&gt;" style="rounded=0;whiteSpace=wrap;html=1;fontSize=16;fillColor=#d5e8d4;strokeColor=#82b366;" vertex="1" parent="WIyWlLk6GJQsqaUBKTNV-1">
          <mxGeometry x="-3225.25" y="-1000" width="112.5" height="40" as="geometry" />
        </mxCell>
        <mxCell id="UC4HS0ma9lEh2T5-tCLA-8" style="edgeStyle=orthogonalEdgeStyle;rounded=0;orthogonalLoop=1;jettySize=auto;html=1;entryX=0;entryY=0.5;entryDx=0;entryDy=0;" edge="1" parent="WIyWlLk6GJQsqaUBKTNV-1" source="UC4HS0ma9lEh2T5-tCLA-2" target="UC4HS0ma9lEh2T5-tCLA-3">
          <mxGeometry relative="1" as="geometry" />
        </mxCell>
        <mxCell id="UC4HS0ma9lEh2T5-tCLA-2" value="&lt;font style=&quot;font-size: 11.29px;&quot;&gt;LCD_init()&lt;br style=&quot;border-color: var(--border-color); font-size: 11.29px;&quot;&gt;&lt;/font&gt;" style="rounded=0;whiteSpace=wrap;html=1;fontSize=16;fillColor=#d5e8d4;strokeColor=#82b366;" vertex="1" parent="WIyWlLk6GJQsqaUBKTNV-1">
          <mxGeometry x="-3225.25" y="-920" width="112.5" height="40" as="geometry" />
        </mxCell>
        <mxCell id="UC4HS0ma9lEh2T5-tCLA-14" style="edgeStyle=orthogonalEdgeStyle;rounded=0;orthogonalLoop=1;jettySize=auto;html=1;" edge="1" parent="WIyWlLk6GJQsqaUBKTNV-1" source="UC4HS0ma9lEh2T5-tCLA-3" target="UC4HS0ma9lEh2T5-tCLA-6">
          <mxGeometry relative="1" as="geometry" />
        </mxCell>
        <mxCell id="UC4HS0ma9lEh2T5-tCLA-3" value="&lt;font style=&quot;&quot;&gt;&lt;font style=&quot;font-size: 11.29px;&quot;&gt;PUSH_Btn_init()&lt;/font&gt;&lt;br style=&quot;border-color: var(--border-color); font-size: 11.29px;&quot;&gt;&lt;/font&gt;" style="rounded=0;whiteSpace=wrap;html=1;fontSize=16;fillColor=#d5e8d4;strokeColor=#82b366;" vertex="1" parent="WIyWlLk6GJQsqaUBKTNV-1">
          <mxGeometry x="-3030" y="-920" width="112.5" height="40" as="geometry" />
        </mxCell>
        <mxCell id="UC4HS0ma9lEh2T5-tCLA-17" style="edgeStyle=orthogonalEdgeStyle;rounded=0;orthogonalLoop=1;jettySize=auto;html=1;entryX=0.5;entryY=1;entryDx=0;entryDy=0;entryPerimeter=0;" edge="1" parent="WIyWlLk6GJQsqaUBKTNV-1" source="UC4HS0ma9lEh2T5-tCLA-4" target="Sz5I-C2nNWflKFqn1XSB-32">
          <mxGeometry relative="1" as="geometry">
            <Array as="points">
              <mxPoint x="-2974" y="-1020" />
              <mxPoint x="-2794" y="-1020" />
            </Array>
          </mxGeometry>
        </mxCell>
        <mxCell id="UC4HS0ma9lEh2T5-tCLA-4" value="&lt;font style=&quot;&quot;&gt;&lt;font style=&quot;font-size: 11.29px;&quot;&gt;TIMER_init()&lt;/font&gt;&lt;br style=&quot;border-color: var(--border-color); font-size: 11.29px;&quot;&gt;&lt;/font&gt;" style="rounded=0;whiteSpace=wrap;html=1;fontSize=16;fillColor=#d5e8d4;strokeColor=#82b366;" vertex="1" parent="WIyWlLk6GJQsqaUBKTNV-1">
          <mxGeometry x="-3030" y="-1000" width="112.5" height="40" as="geometry" />
        </mxCell>
        <mxCell id="UC4HS0ma9lEh2T5-tCLA-16" style="edgeStyle=orthogonalEdgeStyle;rounded=0;orthogonalLoop=1;jettySize=auto;html=1;exitX=0;exitY=0.5;exitDx=0;exitDy=0;entryX=1;entryY=0.5;entryDx=0;entryDy=0;" edge="1" parent="WIyWlLk6GJQsqaUBKTNV-1" source="UC4HS0ma9lEh2T5-tCLA-5" target="UC4HS0ma9lEh2T5-tCLA-4">
          <mxGeometry relative="1" as="geometry" />
        </mxCell>
        <mxCell id="UC4HS0ma9lEh2T5-tCLA-5" value="&lt;font style=&quot;font-size: 11.29px;&quot;&gt;KEYPAD_init()&lt;br style=&quot;border-color: var(--border-color); font-size: 11.29px;&quot;&gt;&lt;/font&gt;" style="rounded=0;whiteSpace=wrap;html=1;fontSize=16;fillColor=#d5e8d4;strokeColor=#82b366;" vertex="1" parent="WIyWlLk6GJQsqaUBKTNV-1">
          <mxGeometry x="-2850" y="-1000" width="112.5" height="40" as="geometry" />
        </mxCell>
        <mxCell id="UC4HS0ma9lEh2T5-tCLA-15" style="edgeStyle=orthogonalEdgeStyle;rounded=0;orthogonalLoop=1;jettySize=auto;html=1;entryX=0.5;entryY=1;entryDx=0;entryDy=0;" edge="1" parent="WIyWlLk6GJQsqaUBKTNV-1" source="UC4HS0ma9lEh2T5-tCLA-6" target="UC4HS0ma9lEh2T5-tCLA-5">
          <mxGeometry relative="1" as="geometry" />
        </mxCell>
        <mxCell id="UC4HS0ma9lEh2T5-tCLA-6" value="&lt;font style=&quot;font-size: 11.29px;&quot;&gt;DCM_Motors_init()&lt;br style=&quot;border-color: var(--border-color); font-size: 11.29px;&quot;&gt;&lt;/font&gt;" style="rounded=0;whiteSpace=wrap;html=1;fontSize=16;fillColor=#d5e8d4;strokeColor=#82b366;" vertex="1" parent="WIyWlLk6GJQsqaUBKTNV-1">
          <mxGeometry x="-2850" y="-920" width="112.5" height="40" as="geometry" />
        </mxCell>
      </root>
    </mxGraphModel>
  </diagram>
</mxfile>
